<?xml version="1.0" standalone="no"?>
<!DOCTYPE svg PUBLIC "-//W3C//DTD SVG 20010904//EN"
 "http://www.w3.org/TR/2001/REC-SVG-20010904/DTD/svg10.dtd">
<svg version="1.0" xmlns="http://www.w3.org/2000/svg"
 width="700.000000pt" height="700.000000pt" viewBox="0 0 700.000000 700.000000"
 preserveAspectRatio="xMidYMid meet">
<metadata>
Created by potrace 1.11, written by Peter Selinger 2001-2013
</metadata>
<g transform="translate(0.000000,700.000000) scale(0.100000,-0.100000)"
fill="#000000" stroke="none">
<path d="M3312 5369 c-355 -29 -723 -171 -992 -382 -343 -270 -578 -655 -659
-1082 -50 -258 -44 -588 15 -845 45 -199 163 -463 281 -630 104 -147 312 -348
463 -450 746 -498 1771 -407 2394 213 313 312 491 712 526 1185 17 222 -6 462
-65 677 -88 322 -293 654 -538 866 -299 259 -678 415 -1091 449 -143 11 -184
11 -334 -1z m274 -799 c289 -26 507 -148 669 -375 143 -200 213 -497 186 -795
-26 -287 -109 -483 -280 -663 -171 -179 -350 -255 -624 -264 -281 -10 -472 46
-656 194 -166 132 -274 322 -328 577 -25 115 -25 435 1 561 88 442 392 725
821 764 50 5 92 9 95 10 3 0 55 -4 116 -9z"/>
</g>
</svg>
