<svg width="205" height="24" viewBox="0 0 205 24" fill="none" xmlns="http://www.w3.org/2000/svg">
<path fill-rule="evenodd" clip-rule="evenodd" d="M6.00934 5.84686C4.04909 7.55919 2.65387 9.90216 2.14009 12.5594C1.36696 11.8335 0.884033 10.8022 0.884033 9.65803C0.884033 7.46058 2.66542 5.6792 4.86287 5.6792C5.26143 5.6792 5.6463 5.7378 6.00934 5.84686Z" fill="#4EB5A2"/>
<path fill-rule="evenodd" clip-rule="evenodd" d="M21.698 23.8354C23.6555 22.128 25.0507 19.7921 25.569 17.1423C26.3252 17.8666 26.7961 18.8864 26.7961 20.0162C26.7961 22.2137 25.0147 23.995 22.8173 23.995C22.4286 23.995 22.053 23.9393 21.698 23.8354Z" fill="#4EB5A2"/>
<path fill-rule="evenodd" clip-rule="evenodd" d="M25.5686 12.5323C25.0498 9.88235 23.6541 7.54653 21.696 5.83936C22.0517 5.73512 22.4279 5.6792 22.8172 5.6792C25.0147 5.6792 26.7961 7.46058 26.7961 9.65803C26.7961 10.788 26.325 11.808 25.5686 12.5323Z" fill="#4EB5A2"/>
<path fill-rule="evenodd" clip-rule="evenodd" d="M2.13972 17.1152C2.65303 19.7724 4.0477 22.1154 6.00741 23.828C5.64494 23.9367 5.26072 23.995 4.86287 23.995C2.66542 23.995 0.884033 22.2137 0.884033 20.0162C0.884033 18.8723 1.3668 17.8411 2.13972 17.1152Z" fill="#4EB5A2"/>
<path d="M13.8571 20.8043C17.152 20.8043 19.8231 18.1332 19.8231 14.8383C19.8231 11.5434 17.152 8.87231 13.8571 8.87231C10.5622 8.87231 7.89111 11.5434 7.89111 14.8383C7.89111 18.1332 10.5622 20.8043 13.8571 20.8043Z" fill="#4EB5A2"/>
<path d="M30.8201 5.6792H37.5945C42.0385 5.6792 43.9647 8.27154 43.9647 11.7762C43.9647 15.7911 41.2843 17.7173 37.2558 17.7173H34.3947V23.9994H30.8201V5.6792ZM36.7996 14.5153C39.0781 14.5153 40.2116 13.3862 40.2116 11.7084C40.2116 10.0306 39.0668 8.90156 36.9509 8.90156H34.3947V14.5153H36.7996Z" fill="#4EB5A2"/>
<path d="M46.8958 5.6792H58.6019V8.9264H50.4726V13.3207H56.9941V16.5182H50.4704V20.7613H59.1439V23.9994H46.8958V5.6792Z" fill="#4EB5A2"/>
<path d="M77.8006 5.6792V23.9994H74.0859L66.0312 11.8597H65.9792V23.9994H62.3662V5.6792H65.9792L74.1243 18.0538H74.174V5.6792H77.8006Z" fill="#4EB5A2"/>
<path d="M86.937 5.6792H93.7114C98.1554 5.6792 100.082 8.27154 100.082 11.7762C100.082 15.7911 97.4012 17.7173 93.3727 17.7173H90.5116V23.9994H86.937V5.6792ZM92.9166 14.5153C95.195 14.5153 96.3286 13.3862 96.3286 11.7084C96.3286 10.0306 95.1815 8.90156 93.0679 8.90156H90.5116V14.5153H92.9166Z" fill="#4EB5A2"/>
<path d="M111.612 23.9994C106.072 23.9994 102.274 20.0544 102.274 14.6168C102.274 9.17922 106.072 5.25684 111.612 5.25684C116.986 5.25684 120.926 9.03469 120.926 14.6236C120.926 20.2125 116.986 23.9994 111.612 23.9994ZM111.612 20.6257C114.773 20.6257 117.151 18.0717 117.151 14.6213C117.151 11.1709 114.784 8.64404 111.623 8.64404C108.326 8.64404 106.048 11.2996 106.048 14.6236C106.048 17.9475 108.326 20.6121 111.623 20.6121L111.612 20.6257Z" fill="#4EB5A2"/>
<path d="M124.201 5.6792H127.827V20.7613H135.97V23.9994H124.201V5.6792Z" fill="#4EB5A2"/>
<path d="M138.904 5.67921H142.555V23.9995H138.904V5.67921ZM142.139 0.0135483L145.678 0L142.48 3.8027H139.22L142.139 0.0135483Z" fill="#4EB5A2"/>
<path d="M150.499 8.9264H145.45V5.6792H159.179V8.9264H154.112V23.9994H150.499V8.9264Z" fill="#4EB5A2"/>
<path d="M162.056 5.6792H165.708V23.9994H162.056V5.6792Z" fill="#4EB5A2"/>
<path d="M178.434 23.9994C173.424 23.9994 169.115 20.7476 169.115 14.7049C169.115 9.47956 172.464 5.2749 178.443 5.2749C179.844 5.27859 181.225 5.59614 182.487 6.20421C183.748 6.81227 184.857 7.69537 185.733 8.78857L183.075 11.0467C182.007 9.76408 180.345 8.71856 178.443 8.71856C175.257 8.71856 172.904 11.0354 172.904 14.6981C172.904 18.0853 175.162 20.5512 178.443 20.5512C179.34 20.5367 180.222 20.321 181.024 19.92C181.826 19.519 182.528 18.9429 183.077 18.2343L185.733 20.5128C184.864 21.6131 183.754 22.4995 182.489 23.104C181.223 23.7084 179.836 24.0147 178.434 23.9994Z" fill="#4EB5A2"/>
<path d="M199.08 20.3324H192.055L190.809 23.9996H187.02L193.805 5.68384H197.306L204.116 23.9996H200.327L199.08 20.3324ZM198.019 17.2252L195.562 10.0375H195.535L193.101 17.2252H198.019Z" fill="#4EB5A2"/>
</svg>
