<?xml version="1.0" encoding="utf-8"?>
<svg viewBox="0 1.112 913.284 122.732" xmlns="http://www.w3.org/2000/svg">
  <g id="Letras" transform="matrix(1, 0, 0, 1, -83.127541, -475.820007)">
    <circle class="cls-1" cx="107.62" cy="569.36" r="17.62" style="fill: rgb(78, 180, 161);"/>
    <circle class="cls-1" cx="187.13" cy="569.36" r="17.62" style="fill: rgb(78, 180, 161);"/>
    <circle class="cls-1" cx="107.62" cy="523.49" r="17.62" style="fill: rgb(78, 180, 161);"/>
    <circle class="cls-1" cx="187.13" cy="523.49" r="17.62" style="fill: rgb(78, 180, 161);"/>
    <circle cx="147.45" cy="546.43" r="52.85" fill="#fff"/>
    <circle class="cls-1" cx="147.45" cy="546.43" r="26.42" style="fill: rgb(78, 180, 161);"/>
    <path class="cls-1" d="M222.57 505.87h30c19.68 0 28.21 11.48 28.21 27 0 17.78-11.87 26.31-29.71 26.31H238.4V587h-15.83zM249.05 545c10.09 0 15.11-5 15.11-12.43s-5.07-12.43-14.44-12.43H238.4V545zM293.76 505.87h51.84v14.38h-36v19.46h28.88v14.16h-28.89v18.79H348V587h-54.24zM430.62 505.87V587h-16.45l-35.67-53.76h-.23V587h-16v-81.13h16l36.07 54.8h.22v-54.8zM471.08 505.87h30c19.68 0 28.21 11.48 28.21 27 0 17.78-11.87 26.31-29.71 26.31h-12.67V587h-15.83zM497.56 545c10.09 0 15.11-5 15.11-12.43s-5.08-12.43-14.44-12.43h-11.32V545zM580.35 587c-24.53 0-41.35-17.47-41.35-41.55S555.82 504 580.35 504c23.8 0 41.25 16.73 41.25 41.48S604.15 587 580.35 587zm0-14.94c14 0 24.53-11.31 24.53-26.59S594.4 519 580.4 519c-14.6 0-24.69 11.76-24.69 26.48S565.8 572 580.4 572zM636.1 505.87h16.06v66.79h36.06V587H636.1zM701.21 505.87h16.17V587h-16.17zm14.33-25.09l15.67-.06-14.16 16.84h-14.44zM752.56 520.25H730.2v-14.38H791v14.38h-22.44V587h-16zM803.74 505.87h16.17V587h-16.17zM876.27 587c-22.19 0-41.27-14.4-41.27-41.16 0-23.14 14.83-41.76 41.31-41.76a41.49 41.49 0 0132.28 15.56l-11.77 10c-4.73-5.68-12.09-10.31-20.51-10.31-14.11 0-24.53 10.26-24.53 26.48 0 15 10 25.92 24.53 25.92a26.51 26.51 0 0020.52-10.26l11.76 10.09A40.62 40.62 0 01876.27 587zM967.7 570.76h-31.11L931.07 587h-16.78l30.05-81.11h15.5L990 587h-16.78zM963 557l-10.88-31.83H952L941.22 557z" style="fill: rgb(78, 180, 161);"/>
  </g>
</svg>